<?xml version="1.0" standalone="no"?><!DOCTYPE svg PUBLIC "-//W3C//DTD SVG 1.1//EN" "http://www.w3.org/Graphics/SVG/1.1/DTD/svg11.dtd"><svg t="1662912220838" class="icon" viewBox="0 0 1024 1024" version="1.1" xmlns="http://www.w3.org/2000/svg" p-id="7914" xmlns:xlink="http://www.w3.org/1999/xlink" width="200" height="200"><path d="M913.4 757.4c-105-16-113-31.4-113-31.4 21.6-129.8-45.4-294.2-154.8-383.2-145.6-118.4-367-32.4-539.4-212.4-40.2-42-16.8 471 199 665.4 157.8 142 343.6 98.4 394.6 75.2 46.2-21.2 78.6-59.8 78.6-59.8 84.2 26 125.8 24.4 125.8 24.4C933.8 839.2 948.8 762.8 913.4 757.4zM721.2 766.2c-276.4-81.8-484.2-369-484.2-369s182.4 215.4 504 320.4C741.4 733.8 731.8 757 721.2 766.2z" p-id="7915" fill="#ffffff"></path></svg>