<?xml version="1.0" standalone="no"?><!DOCTYPE svg PUBLIC "-//W3C//DTD SVG 1.1//EN" "http://www.w3.org/Graphics/SVG/1.1/DTD/svg11.dtd"><svg t="1662917434013" class="icon" viewBox="0 0 1024 1024" version="1.1" xmlns="http://www.w3.org/2000/svg" p-id="1058" xmlns:xlink="http://www.w3.org/1999/xlink" width="32" height="32"><path d="M232 512a280 280 0 1 0 560 0 280 280 0 1 0-560 0zM492 40h40v104h-40zM164.328 192.68l28.288-28.288 73.536 73.536-28.28 28.288zM40 492h104v40H40z m123.256 339.48l73.544-73.536 28.28 28.288-73.536 73.536zM492 880h40v104h-40z m266.744-94.056l28.28-28.28L860.56 831.2l-28.28 28.288zM880 492h104v40H880zM757.992 237.872l73.536-73.536 28.28 28.28-73.536 73.544z" fill="#FFCC00" p-id="1059"></path></svg>