<?xml version="1.0" standalone="no"?><!DOCTYPE svg PUBLIC "-//W3C//DTD SVG 1.1//EN" "http://www.w3.org/Graphics/SVG/1.1/DTD/svg11.dtd"><svg t="1662714369202" class="icon" viewBox="0 0 1024 1024" version="1.1" xmlns="http://www.w3.org/2000/svg" p-id="5885" xmlns:xlink="http://www.w3.org/1999/xlink" width="200" height="200"><path d="M291.031579 465.111579a123.418947 123.418947 0 1 1 123.418947-123.418947 123.688421 123.688421 0 0 1-123.418947 123.418947z m0-193.212632a69.524211 69.524211 0 1 0 69.52421 69.524211 69.793684 69.793684 0 0 0-69.52421-69.254737zM839.410526 650.509474a26.947368 26.947368 0 0 0-35.031579 15.36 134.736842 134.736842 0 0 1-260.311579-48.505263V406.905263a134.736842 134.736842 0 0 1 260.311579-48.505263 26.947368 26.947368 0 0 0 50.122106-19.671579 188.631579 188.631579 0 0 0-364.328421 68.176842v210.189474a188.631579 188.631579 0 0 0 364.328421 68.176842 26.947368 26.947368 0 0 0-15.090527-34.762105z" fill="#2c2c2c" p-id="5886"></path></svg>